<svg id="Layer_1" data-name="Layer 1" xmlns="http://www.w3.org/2000/svg" viewBox="0 0 194.03 194.03"><defs><style>.cls-1{fill:#231f20;}</style></defs><title>mediatrix-favicon</title><path class="cls-1" d="M500,253a97,97,0,1,0,97,97A97.14,97.14,0,0,0,500,253Zm0,184a87,87,0,1,1,87-87A87.12,87.12,0,0,1,500,437Z" transform="translate(-402.98 -252.98)"/><path class="cls-1" d="M517,295.25c-2.1.72-11.45,1.45-12.47,1.45a139.81,139.81,0,0,1-26.89-3,27.73,27.73,0,0,0-25.36,7.58c-6.54,6.33-9.43,15.25-9.24,24,.5,22,7.94,35.95,13.84,61.18,1.72,7.38,4.36,14.09,9.14,17.68,3.84,2.89,8.79,3.71,14.87,1.32,7.6-3,17.31-10.16,23.73-15.36C512.15,401.5,519.18,407,526,406.8c11-.26,15-11.72,17-20.32,4.46-19.07,12.16-42.17,13.83-61.18C558.64,304.77,538.63,287.93,517,295.25Zm18.55,89.25c-4.69,20.07-13.83,17.4-24.91.54C523,374.25,536,360.41,545,346.23,542,359.87,538.07,373.84,535.57,384.5ZM496,386.81c-2.09,1.59-8.25,6.5-13.45,9.37-7,3.85-11.79,2.29-13.93-.72-1.45-2-2.94-5.39-4.25-11-3.36-14.4-9.55-27.59-12.27-44.82-1.56-9.95-1.32-13.45-1.35-15a23.35,23.35,0,0,1,6.74-17.33,20.45,20.45,0,0,1,18.72-5.62,191.71,191.71,0,0,0,26.55,3.05c-6.74,5-11.56,12.82-19.16,10.74a3.81,3.81,0,0,0-4.65,2.95,4.1,4.1,0,0,0,2.75,5c18.44,5.05,19.21-15.87,43.07-21.6,10.92-1.2,20.29,5,23.27,13.76C556.17,339.69,517,370.76,496,386.81Z" transform="translate(-402.98 -252.98)"/></svg>