<svg id="Layer_1" data-name="Layer 1" xmlns="http://www.w3.org/2000/svg" viewBox="0 0 938.67 157.54"><defs><style>.cls-1{fill:#ffff;}</style></defs><title>mediatrix-main-logo</title><path class="cls-1" d="M133.62,274.92c-2.91,1-15.85,2-17.27,2a194,194,0,0,1-37.25-4.11c-12.65-2.7-25.45,1.13-35.12,10.49-9,8.77-13.06,21.12-12.78,33.22.69,30.44,11,49.79,19.16,84.73,2.38,10.22,6,19.51,12.65,24.49,5.32,4,12.17,5.13,20.6,1.83,10.52-4.13,24-14.07,32.86-21.27,10.41,15.76,20.14,23.35,29.64,23.09,15.24-.36,20.7-16.23,23.48-28.14,6.18-26.41,16.85-58.4,19.16-84.73C191.25,288.09,163.54,264.78,133.62,274.92ZM104.44,401.71c-2.89,2.2-11.43,9-18.63,13-9.65,5.32-16.33,3.17-19.29-1-2-2.82-4.08-7.48-5.88-15.19-4.66-19.94-13.24-38.21-17-62.07-2.17-13.78-1.83-18.62-1.87-20.74-.15-8.63,2.69-17.57,9.33-24A28.37,28.37,0,0,1,77,283.91c8.43,1.8,24.56,3.71,36.78,4.23-9.35,7-16,17.76-26.54,14.87a5.29,5.29,0,0,0-6.45,4.08A5.69,5.69,0,0,0,84.64,314c25.54,7,26.6-22,59.64-29.91,15.12-1.67,28.1,6.93,32.22,19.05C187.83,336.45,133.59,379.48,104.44,401.71Zm54.87-3.2c-6.5,27.79-19.16,24.1-34.49.75,17-14.94,35-34.11,47.51-53.75C168.15,364.4,162.76,383.74,159.31,398.51Z" transform="translate(-31.19 -271.96)"/><path class="cls-1" d="M291.25,299.08l-16,32.41h-7.89l-15.95-32.41v37.33H238.15v-59.3h17.9l15.27,32.58,15.35-32.58h17.81v59.3H291.25Z" transform="translate(-31.19 -271.96)"/><path class="cls-1" d="M359.19,336.41l-5.51-12.81H328.83l-5.52,12.81H309.23l25.62-59.3h12.81l25.62,59.3ZM341.3,294.76,333.83,312h14.85Z" transform="translate(-31.19 -271.96)"/><path class="cls-1" d="M426.12,296.79q0,14.25-11.28,18.41l15,21.21H413.57l-13.15-18.92h-9.16v18.92H378v-59.3H400.5q13.83,0,19.73,4.67T426.12,296.79Zm-15.94,7c1.63-1.47,2.46-3.8,2.46-7s-.85-5.39-2.55-6.58-4.67-1.78-8.91-1.78h-9.92V306h9.67C405.45,306,408.53,305.31,410.18,303.83Z" transform="translate(-31.19 -271.96)"/><path class="cls-1" d="M461.58,336.41H448.35V313l-20.53-35.89h14.33L455,299.17l12.81-22.06h14.34L461.58,313Z" transform="translate(-31.19 -271.96)"/><path class="cls-1" d="M559.72,299.08l-16,32.41H535.8l-15.95-32.41v37.33H506.62v-59.3h17.9l15.27,32.58,15.35-32.58H573v59.3H559.72Z" transform="translate(-31.19 -271.96)"/><path class="cls-1" d="M628.18,277.11V288.9H598.66v12.22h26.55V312.4H598.66v12.3h30.45v11.71H585.42v-59.3Z" transform="translate(-31.19 -271.96)"/><path class="cls-1" d="M684.08,284.88q8.48,7.75,8.48,21.58t-8.27,21.89q-8.26,8.06-25.24,8.06H638.78v-59.3h21Q675.6,277.11,684.08,284.88Zm-9.71,35.24q4.88-4.58,4.87-13.32t-4.87-13.44q-4.89-4.71-15-4.71H652V324.7h8.4Q669.49,324.7,674.37,320.12Z" transform="translate(-31.19 -271.96)"/><path class="cls-1" d="M701.89,277.11h13.23v59.3H701.89Z" transform="translate(-31.19 -271.96)"/><path class="cls-1" d="M769.84,336.41l-5.52-12.81H739.47L734,336.41H719.87l25.62-59.3H758.3l25.62,59.3Zm-17.9-41.65L744.47,312h14.85Z" transform="translate(-31.19 -271.96)"/><path class="cls-1" d="M809.45,288.56v47.85H796.22V288.56h-16.8V277.11h46.83v11.45Z" transform="translate(-31.19 -271.96)"/><path class="cls-1" d="M881.89,296.79q0,14.25-11.28,18.41l15,21.21H869.34l-13.15-18.92H847v18.92H833.79v-59.3h22.48q13.83,0,19.73,4.67T881.89,296.79Zm-15.95,7q2.46-2.2,2.46-7t-2.54-6.58q-2.55-1.78-8.91-1.78H847V306h9.67C861.22,306,864.3,305.31,865.94,303.83Z" transform="translate(-31.19 -271.96)"/><path class="cls-1" d="M893.34,277.11h13.23v59.3H893.34Z" transform="translate(-31.19 -271.96)"/><path class="cls-1" d="M952.38,277.11h16l-18.5,28.59,20,30.71H953.74L941.1,316.9l-12.56,19.51H912.6L932.53,306,914,277.11h15.87l11.28,17.56Z" transform="translate(-31.19 -271.96)"/><path class="cls-1" d="M283.45,364.38q8.48,7.75,8.48,21.59t-8.27,21.88q-8.28,8.07-25.24,8.06H238.15V356.62h21Q275,356.62,283.45,364.38Zm-9.72,35.24q4.88-4.58,4.88-13.31t-4.88-13.45q-4.87-4.71-15-4.71h-7.38v36.06h8.4Q268.86,404.21,273.73,399.62Z" transform="translate(-31.19 -271.96)"/><path class="cls-1" d="M344,356.62v11.79H314.49v12.21H341v11.29H314.49v12.3h30.45v11.7H301.26V356.62Z" transform="translate(-31.19 -271.96)"/><path class="cls-1" d="M396.09,356.62h13.24v59.29H396.09l-28.24-37.15v37.15H354.61V356.62H367l29.09,38.17Z" transform="translate(-31.19 -271.96)"/><path class="cls-1" d="M446.9,368.07v47.84H433.67V368.07H416.88V356.62H463.7v11.45Z" transform="translate(-31.19 -271.96)"/><path class="cls-1" d="M509.17,415.91l-5.52-12.81H478.8l-5.52,12.81H459.2l25.62-59.29h12.81l25.62,59.29Zm-17.9-41.65-7.47,17.22h14.85Z" transform="translate(-31.19 -271.96)"/><path class="cls-1" d="M528,415.91V356.62h13.23v47.5h25.28v11.79Z" transform="translate(-31.19 -271.96)"/><path class="cls-1" d="M621.56,404.21a19.56,19.56,0,0,0,16-7.72l8.48,8.73q-10.1,11.37-23.8,11.37t-22.56-8.65q-8.86-8.65-8.86-21.85a29.51,29.51,0,0,1,9-22,30.43,30.43,0,0,1,22.1-8.82,31.32,31.32,0,0,1,24.43,11.11l-8.23,9.33q-6.29-7.8-15.61-7.8a18.17,18.17,0,0,0-12.76,4.88q-5.31,4.88-5.31,13.14t5,13.28A16.5,16.5,0,0,0,621.56,404.21Z" transform="translate(-31.19 -271.96)"/><path class="cls-1" d="M654.3,415.91V356.62h13.24v47.5h25.27v11.79Z" transform="translate(-31.19 -271.96)"/><path class="cls-1" d="M700.36,356.62h13.23v59.29H700.36Z" transform="translate(-31.19 -271.96)"/><path class="cls-1" d="M767.54,356.62h13.24v59.29H767.54L739.3,378.76v37.15H726.06V356.62h12.39l29.09,38.17Z" transform="translate(-31.19 -271.96)"/><path class="cls-1" d="M793.24,356.62h13.24v59.29H793.24Z" transform="translate(-31.19 -271.96)"/><path class="cls-1" d="M846.17,404.21a19.54,19.54,0,0,0,16-7.72l8.48,8.73q-10.1,11.37-23.79,11.37t-22.56-8.65q-8.87-8.65-8.87-21.85a29.49,29.49,0,0,1,9-22,30.41,30.41,0,0,1,22.09-8.82,31.31,31.31,0,0,1,24.43,11.11l-8.22,9.33q-6.29-7.8-15.61-7.8a18.21,18.21,0,0,0-12.77,4.88q-5.3,4.88-5.3,13.14t5,13.28A16.52,16.52,0,0,0,846.17,404.21Z" transform="translate(-31.19 -271.96)"/></svg>