<svg xmlns="http://www.w3.org/2000/svg" viewBox="0 0 26 26">
  <path d="M21.125 0L4.875 0C2.183594 0 0 2.183594 0 4.875L0 21.125C0 23.816406 2.183594 26 4.875 26L21.125 26C23.816406 26 26 23.816406 26 21.125L26 4.875C26 2.183594 23.816406 0 21.125 0 Z M 20.464844 14.003906L18.03125 14.003906L18.03125 23.007813L13.96875 23.007813L13.96875 14.003906L12.390625 14.003906L12.390625 10.96875L13.96875 10.96875L13.96875 9.035156C13.96875 6.503906 15.019531 5 18.007813 5L21.03125 5L21.03125 8.023438L19.273438 8.023438C18.113281 8.023438 18.035156 8.453125 18.035156 9.265625L18.03125 10.96875L20.796875 10.96875Z" fill="#ffff" />
</svg>