<svg xmlns="http://www.w3.org/2000/svg" viewBox="0 0 24 24">
  <path d="M9.3105469 1C8.8305469 1 8.417125 1.3385469 8.328125 1.8105469C8.183125 2.5775469 8 3.788 8 5L16 5C16 3.788 15.816875 2.5775469 15.671875 1.8105469C15.582875 1.3385469 15.169453 1 14.689453 1L9.3105469 1 z M 8 7C8 9.209 9.791 11 12 11C14.209 11 16 9.209 16 7L8 7 z M 9.1875 14.3125C6.2675 14.8935 3 16.291 3 18.5L3 20C3 20.552 3.448 21 4 21L20 21C20.552 21 21 20.552 21 20L21 18.5C21 16.291 17.7315 14.8935 14.8125 14.3125L12.912109 17.478516C12.499109 18.167516 11.501891 18.167516 11.087891 17.478516L9.1875 14.3125 z" fill="#05545E" />
</svg>