<svg xmlns="http://www.w3.org/2000/svg" viewBox="0 0 24 24">
  <path d="M3 3C2.448 3 2 3.448 2 4L2 14C2 14.552 2.448 15 3 15L21 15C21.552 15 22 14.552 22 14L22 4C22 3.448 21.552 3 21 3L3 3 z M 4.9121094 5L19.087891 5 A 1.5 1.5 0 0 0 20 5.9121094L20 12.087891 A 1.5 1.5 0 0 0 19.087891 13L4.9121094 13 A 1.5 1.5 0 0 0 4 12.087891L4 5.9121094 A 1.5 1.5 0 0 0 4.9121094 5 z M 12 6 A 3 3 0 0 0 9 9 A 3 3 0 0 0 12 12 A 3 3 0 0 0 15 9 A 3 3 0 0 0 12 6 z M 7 8C6.448 8 6 8.447 6 9C6 9.553 6.448 10 7 10C7.552 10 8 9.553 8 9C8 8.447 7.552 8 7 8 z M 17 8C16.448 8 16 8.447 16 9C16 9.553 16.448 10 17 10C17.552 10 18 9.553 18 9C18 8.447 17.552 8 17 8 z M 3.9902344 17L19.228516 20.96875C19.763516 21.10775 20.308266 20.785953 20.447266 20.251953L21.294922 17L19.228516 17L18.992188 17.900391C18.543187 17.939391 18.137766 18.178781 17.884766 18.550781L11.927734 17L3.9902344 17 z" fill="#05545E" />
</svg>