<svg xmlns="http://www.w3.org/2000/svg" viewBox="0 0 24 24">
  <path d="M12 1C11.448 1 11 1.448 11 2L11 2.0488281C6.2749186 2.5176034 2.5176034 6.2749186 2.0488281 11L2 11C1.448 11 1 11.448 1 12C1 12.552 1.448 13 2 13L2.0488281 13C2.5176034 17.725081 6.2749186 21.482397 11 21.951172L11 22C11 22.552 11.448 23 12 23C12.552 23 13 22.552 13 22L13 21.951172C17.725081 21.482397 21.482397 17.725081 21.951172 13L22 13C22.552 13 23 12.552 23 12C23 11.448 22.552 11 22 11L21.951172 11C21.482397 6.2749186 17.725081 2.5176034 13 2.0488281L13 2C13 1.448 12.552 1 12 1 z M 11 4.0683594L11 5C11 5.552 11.448 6 12 6C12.552 6 13 5.552 13 5L13 4.0683594C16.611121 4.5218946 19.478105 7.3888787 19.931641 11L19 11C18.448 11 18 11.448 18 12C18 12.552 18.448 13 19 13L19.931641 13C19.478105 16.611121 16.611121 19.478105 13 19.931641L13 19C13 18.448 12.552 18 12 18C11.448 18 11 18.448 11 19L11 19.931641C7.3888787 19.478105 4.5218946 16.611121 4.0683594 13L5 13C5.552 13 6 12.552 6 12C6 11.448 5.552 11 5 11L4.0683594 11C4.5218946 7.3888787 7.3888787 4.5218946 11 4.0683594 z" fill="#05545E" />
</svg>